<svg width="42" height="42" viewBox="0 0 42 42" fill="none" xmlns="http://www.w3.org/2000/svg">
<path d="M21.0021 0.166504C32.5083 0.166504 41.8354 9.49359 41.8354 20.9998C41.8354 32.5061 32.5083 41.8332 21.0021 41.8332C17.3203 41.8395 13.7033 40.8651 10.5229 39.0103L0.177067 41.8332L2.99373 31.4832C1.1374 28.3018 0.162281 24.6832 0.168733 20.9998C0.168733 9.49359 9.49582 0.166504 21.0021 0.166504ZM13.9021 11.2082L13.4854 11.2248C13.216 11.2434 12.9528 11.3142 12.7104 11.4332C12.4845 11.5613 12.2782 11.7213 12.0979 11.9082C11.8479 12.1436 11.7062 12.3478 11.5541 12.5457C10.7836 13.5476 10.3687 14.7776 10.375 16.0415C10.3791 17.0623 10.6458 18.0561 11.0625 18.9853C11.9146 20.8644 13.3166 22.854 15.1666 24.6978C15.6125 25.1415 16.05 25.5873 16.5208 26.0019C18.8196 28.0257 21.5589 29.4852 24.5208 30.2644L25.7042 30.4457C26.0896 30.4665 26.475 30.4373 26.8625 30.4186C27.4691 30.3866 28.0614 30.2223 28.5979 29.9373C28.8705 29.7964 29.1367 29.6435 29.3958 29.479C29.3958 29.479 29.484 29.4193 29.6562 29.2915C29.9375 29.0832 30.1104 28.9353 30.3437 28.6915C30.5187 28.5109 30.6646 28.3012 30.7812 28.0623C30.9437 27.7228 31.1062 27.0748 31.1729 26.5353C31.2229 26.1228 31.2083 25.8978 31.2021 25.7582C31.1937 25.5353 31.0083 25.304 30.8062 25.2061L29.5937 24.6623C29.5937 24.6623 27.7812 23.8728 26.6729 23.3686C26.5569 23.3181 26.4326 23.2891 26.3062 23.2832C26.1637 23.2683 26.0196 23.2842 25.8837 23.3298C25.7478 23.3755 25.6234 23.4498 25.5187 23.5478C25.5083 23.5436 25.3687 23.6623 23.8625 25.4873C23.776 25.6035 23.6569 25.6913 23.5204 25.7395C23.3839 25.7878 23.2361 25.7943 23.0958 25.7582C22.96 25.722 22.8271 25.676 22.6979 25.6207C22.4396 25.5123 22.35 25.4707 22.1729 25.3957C20.9768 24.8746 19.8697 24.1696 18.8916 23.3061C18.6292 23.0769 18.3854 22.8269 18.1354 22.5853C17.3158 21.8003 16.6015 20.9123 16.0104 19.9436L15.8875 19.7457C15.8005 19.6119 15.7292 19.4686 15.675 19.3186C15.5958 19.0123 15.8021 18.7665 15.8021 18.7665C15.8021 18.7665 16.3083 18.2123 16.5437 17.9123C16.7729 17.6207 16.9667 17.3373 17.0917 17.1353C17.3375 16.7394 17.4146 16.3332 17.2854 16.0186C16.7021 14.5936 16.0993 13.1762 15.4771 11.7665C15.3541 11.4873 14.9896 11.2873 14.6583 11.2478C14.5458 11.2339 14.4333 11.2228 14.3208 11.2144C14.0411 11.1984 13.7606 11.2012 13.4812 11.2228L13.9021 11.2082Z" fill="#BDB6AC"/>
</svg>
