<?xml version="1.0" encoding="UTF-8"?>
<svg id="_лой_1" data-name="Слой 1" xmlns="http://www.w3.org/2000/svg" viewBox="0 0 291.34 82.44">
  <defs>
    <style>
      .cls-1 {
        fill: #5c5c5c;
      }
    </style>
  </defs>
  <path class="cls-1" d="M161.63,17.5c.5-1.15,.87-2.47,1.08-3.98,.35-2.57-.04-4.82-1.17-6.74-1.13-1.92-2.71-3.45-4.74-4.58-2.02-1.13-4.36-1.83-6.99-2.09-2.61-.26-5.24-.03-7.86,.71h-4.66c-2.63-.73-5.35-.97-7.96-.71-2.64,.26-4.96,.96-6.99,2.09-2.03,1.13-3.61,2.66-4.74,4.58-1.13,1.92-1.52,4.17-1.17,6.74,.22,1.52,.57,2.83,1.08,3.98-.51,1.14-.87,2.46-1.08,3.97-.35,2.58,.04,4.82,1.17,6.75,1.13,1.92,2.7,3.45,4.74,4.58,2.02,1.13,4.35,1.83,6.99,2.09,2.61,.26,5.24,.02,7.86-.71,.02,0,.03,0,.05,0v.04h4.71l-.05-.04s.03,0,.05,0c2.63,.73,5.26,.97,7.86,.71,2.63-.26,4.96-.96,6.99-2.09,2.03-1.13,3.61-2.66,4.74-4.58,1.13-1.93,1.52-4.17,1.17-6.75-.22-1.52-.58-2.83-1.08-3.97Zm-19.68-4.78c.56-.14,1.28-.29,2.18-.46,.21-.04,.41-.07,.62-.09,.78-.11,1.6-.17,2.48-.17,1.11,0,2.25,.13,3.41,.4,1.17,.26,2.25,.74,3.26,1.45,1.01,.71,1.88,1.7,2.65,2.97,.13,.22,.24,.44,.36,.68-.11,.24-.23,.46-.36,.68-.76,1.27-1.64,2.26-2.65,2.97-1.01,.71-2.09,1.19-3.26,1.45-1.16,.26-2.3,.4-3.41,.4-.88,0-1.7-.06-2.48-.17-.22-.02-.41-.06-.62-.09-.89-.16-1.62-.31-2.18-.45V12.73Zm-4.76,20.28c-1.98,.78-3.99,1.09-6.05,.93-2.08-.15-3.92-.73-5.53-1.74-1.6-1.01-2.84-2.39-3.73-4.15-.89-1.76-1.15-3.83-.79-6.24,1.12,.73,2.39,1.27,3.81,1.58,1.49,.34,3.09,.51,4.82,.51,1.48,0,2.73-.05,3.76-.13,1.02-.09,2.01-.19,2.96-.29,.24-.03,.5-.06,.75-.08v9.61Zm.05-10.74s-.03,0-.05,0c-.56,.14-1.28,.29-2.18,.45-.21,.04-.41,.08-.63,.09-.77,.11-1.59,.17-2.47,.17-1.11,0-2.25-.13-3.42-.4-1.16-.26-2.24-.74-3.25-1.45-1.01-.71-1.89-1.7-2.65-2.97-.13-.22-.25-.44-.36-.68,.1-.24,.23-.46,.36-.68,.75-1.27,1.64-2.26,2.65-2.97,1.01-.71,2.09-1.19,3.25-1.45,1.17-.27,2.31-.4,3.42-.4,.88,0,1.7,.06,2.47,.17,.22,.03,.42,.06,.63,.09,.89,.17,1.62,.32,2.18,.46,.02,0,.03,0,.05,0v9.53Zm.05-10.65h-.05s-.03,0-.05,0c-.25-.02-.51-.05-.75-.08-.95-.1-1.94-.21-2.96-.29-1.03-.08-2.28-.13-3.76-.13-1.73,0-3.33,.17-4.82,.5-1.41,.32-2.68,.86-3.81,1.59-.36-2.4-.09-4.47,.79-6.24,.89-1.77,2.13-3.16,3.73-4.15,1.61-1.01,3.45-1.59,5.53-1.75,2.05-.16,4.07,.16,6.05,.94,.02,0,.03,0,.05,.02,.02,0,.03,0,.05,.02V11.61Zm19.97,16.43c-.89,1.76-2.13,3.15-3.73,4.15-1.61,1.01-3.46,1.59-5.54,1.74-2.05,.16-4.06-.15-6.04-.93v-9.61c.25,.02,.51,.05,.75,.08,.95,.1,1.94,.2,2.96,.29,1.03,.08,2.28,.13,3.76,.13,1.73,0,3.33-.17,4.82-.51,1.41-.31,2.67-.85,3.81-1.58,.36,2.4,.08,4.47-.79,6.24Zm.79-14.84c-1.13-.73-2.39-1.27-3.81-1.59-1.49-.33-3.09-.5-4.82-.5-1.48,0-2.73,.05-3.76,.13-1.02,.08-2.01,.19-2.96,.29-.24,.03-.5,.06-.75,.08V2c1.98-.78,3.98-1.1,6.04-.94,2.08,.16,3.93,.74,5.54,1.75,1.6,1,2.84,2.38,3.73,4.15,.88,1.76,1.15,3.83,.79,6.24Z"/>
  <g>
    <path class="cls-1" d="M291.34,62.25c0,1.6-1.25,2.85-2.84,2.85s-2.83-1.25-2.83-2.83,1.23-2.83,2.84-2.83,2.83,1.22,2.83,2.82Zm-.38,0c0-1.4-1.04-2.46-2.45-2.46s-2.47,1.09-2.47,2.47,1.05,2.47,2.45,2.47,2.47-1.09,2.47-2.49Zm-1.69,.49l.73,1.13h-.55l-.67-1.03h-.88v1.03h-.55v-3.21h1.28c.8,0,1.3,.43,1.3,1.09,0,.49-.25,.83-.68,.99Zm.15-.99c0-.41-.3-.63-.81-.63h-.71v1.28h.71c.51,0,.81-.23,.81-.64Z"/>
    <g>
      <path class="cls-1" d="M0,59.89H8.41c2.55,0,4.44,.44,5.69,1.32,1.25,.88,1.87,2.22,1.87,4.03,0,1.25-.4,2.29-1.2,3.13-.8,.84-2,1.48-3.59,1.91,1.93,.02,3.44,.5,4.52,1.43,1.08,.93,1.62,2.22,1.62,3.86,0,2.09-.74,3.7-2.22,4.8-1.48,1.11-3.61,1.66-6.41,1.66H0v-1.35l1.87-.16,.56-.47v-18.18l-.56-.47-1.87-.19v-1.32Zm5.42,10.02c.14,.01,.3,.02,.48,.02s.43,0,.77,0c2.08,0,3.61-.37,4.58-1.1s1.46-1.89,1.46-3.47c0-1.34-.45-2.35-1.35-3.02-.9-.67-2.26-1.01-4.06-1.01-.16,0-.45,.01-.86,.04-.41,.03-.75,.05-1.02,.06l.02,8.48Zm0,10.48c.4,.03,.78,.06,1.14,.07s.72,.02,1.06,.02c2.26,0,3.9-.37,4.92-1.12,1.03-.75,1.54-1.94,1.54-3.57,0-1.49-.45-2.61-1.35-3.34-.9-.73-2.26-1.1-4.1-1.1-.43,0-.92,.02-1.46,.06-.54,.04-1.14,.09-1.78,.15l.02,8.82Z"/>
      <path class="cls-1" d="M25.55,82.03v-1.35l1.87-.16,.56-.47v-18.18l-.56-.47-1.87-.19v-1.32h15.81v4.82h-1.85l-.47-2.8-.45-.5h-7.64v8.35h5.42l.47-.47,.32-2.4h1.56v7.27h-1.56l-.32-2.39-.47-.5h-5.42v9.25h8.85l.47-.53,.56-3.34h1.71v5.38H25.55Z"/>
      <path class="cls-1" d="M58.46,59.61h2.18l7.91,20.66,1.98,.4v1.35h-7.49v-1.35l2.05-.16,.24-.47-2.38-6.3h-7.78l-2.35,6.3,.34,.47,2.14,.16v1.35h-6.46v-1.35l1.9-.4,7.74-20.66Zm.52,3.46l-3.26,9.15h6.66l-3.4-9.15Z"/>
      <path class="cls-1" d="M75.88,59.89h8.09v1.32l-2.05,.19-.56,.47v11.94c0,2.31,.46,3.98,1.39,5.02,.93,1.04,2.43,1.56,4.49,1.56s3.53-.52,4.46-1.57c.93-1.05,1.4-2.72,1.4-5v-11.72l-.63-.6-1.98-.29v-1.32h6.98v1.32l-1.98,.29-.6,.6v12.01c0,1.58-.11,2.79-.34,3.63-.23,.84-.6,1.57-1.11,2.19-.66,.78-1.58,1.4-2.78,1.85-1.2,.45-2.55,.67-4.05,.67s-2.87-.22-4.06-.67c-1.19-.45-2.12-1.06-2.77-1.85-.53-.63-.9-1.36-1.12-2.19-.22-.83-.33-2.04-.33-3.63v-12.23l-.56-.47-1.88-.19v-1.32Z"/>
      <path class="cls-1" d="M104.11,59.89h18.65v5.08h-1.82l-.45-3.06-.47-.5h-5.04v18.65l.55,.47,2.22,.16v1.35h-8.62v-1.35l2.21-.16,.56-.47v-18.65h-5.04l-.47,.5-.47,3.06h-1.8v-5.08Z"/>
      <path class="cls-1" d="M128.46,59.89h7.67v1.32l-1.89,.19-.34,.37,5.06,9.07,5.54-8.82-.31-.47-2.01-.35v-1.32h6.74v1.32l-2.01,.42-6.87,10.99v7.43l.53,.47,2.24,.16v1.35h-8.54v-1.35l2.24-.16,.53-.47v-6.99l-6.58-11.52-2.01-.32v-1.32Z"/>
      <path class="cls-1" d="M155.83,81.37v-5.8h1.95l.39,3.79,.43,.56c.48,.25,1.04,.44,1.66,.56s1.3,.19,2.03,.19c1.54,0,2.75-.36,3.65-1.07,.9-.71,1.35-1.68,1.35-2.89,0-1.69-1.58-3.2-4.74-4.54-.34-.15-.61-.26-.79-.34-2.26-.98-3.75-1.89-4.48-2.73s-1.1-1.94-1.1-3.28c0-1.89,.7-3.42,2.09-4.58,1.39-1.17,3.24-1.75,5.54-1.75,.92,0,1.85,.08,2.78,.23,.93,.16,1.88,.39,2.84,.7v5.11h-1.72l-.5-3.14-.48-.55c-.42-.24-.88-.41-1.37-.52s-1.03-.17-1.61-.17c-1.38,0-2.47,.36-3.27,1.07-.81,.71-1.21,1.68-1.21,2.91,0,.89,.28,1.63,.85,2.22,.56,.59,1.82,1.29,3.78,2.12,.18,.08,.46,.18,.82,.32,1.92,.75,3.31,1.55,4.16,2.38,.48,.47,.85,1.02,1.09,1.63,.24,.61,.36,1.28,.36,2,0,1.99-.78,3.59-2.34,4.81-1.56,1.22-3.63,1.83-6.21,1.83-1.15,0-2.23-.09-3.25-.27s-1.92-.45-2.7-.79Z"/>
      <path class="cls-1" d="M178.83,82.03v-1.35l1.98-.26,.6-.63v-17.92l-.42-.47-2.19-.19v-1.32h7.01v.89l6.21,16.57,6.27-16.44v-1.02h7.06v1.32l-2.08,.19-.4,.47v18.18l.4,.47,2.08,.16v1.35h-7.88v-1.35l2.18-.16,.32-.47v-18.61l-7.82,20.6h-1.42l-7.53-20.26v18.02l.6,.63,2.01,.26v1.35h-6.98Z"/>
      <path class="cls-1" d="M221.39,59.61h2.18l7.91,20.66,1.98,.4v1.35h-7.49v-1.35l2.05-.16,.24-.47-2.38-6.3h-7.78l-2.35,6.3,.34,.47,2.14,.16v1.35h-6.46v-1.35l1.9-.4,7.74-20.66Zm.52,3.46l-3.26,9.15h6.66l-3.4-9.15Z"/>
      <path class="cls-1" d="M240.7,81.37v-5.8h1.95l.39,3.79,.43,.56c.48,.25,1.04,.44,1.66,.56s1.3,.19,2.03,.19c1.54,0,2.75-.36,3.65-1.07,.9-.71,1.35-1.68,1.35-2.89,0-1.69-1.58-3.2-4.74-4.54-.34-.15-.61-.26-.79-.34-2.26-.98-3.75-1.89-4.48-2.73s-1.1-1.94-1.1-3.28c0-1.89,.7-3.42,2.09-4.58,1.39-1.17,3.24-1.75,5.54-1.75,.92,0,1.85,.08,2.78,.23,.93,.16,1.88,.39,2.84,.7v5.11h-1.72l-.5-3.14-.48-.55c-.42-.24-.88-.41-1.37-.52s-1.03-.17-1.61-.17c-1.38,0-2.47,.36-3.27,1.07-.81,.71-1.21,1.68-1.21,2.91,0,.89,.28,1.63,.85,2.22,.56,.59,1.82,1.29,3.78,2.12,.18,.08,.46,.18,.82,.32,1.92,.75,3.31,1.55,4.16,2.38,.48,.47,.85,1.02,1.09,1.63,.24,.61,.36,1.28,.36,2,0,1.99-.78,3.59-2.34,4.81-1.56,1.22-3.63,1.83-6.21,1.83-1.15,0-2.23-.09-3.25-.27s-1.92-.45-2.7-.79Z"/>
      <path class="cls-1" d="M264.67,81.37v-5.8h1.95l.39,3.79,.43,.56c.48,.25,1.04,.44,1.66,.56s1.3,.19,2.03,.19c1.54,0,2.75-.36,3.65-1.07,.9-.71,1.35-1.68,1.35-2.89,0-1.69-1.58-3.2-4.74-4.54-.34-.15-.61-.26-.79-.34-2.26-.98-3.75-1.89-4.48-2.73s-1.1-1.94-1.1-3.28c0-1.89,.7-3.42,2.09-4.58,1.39-1.17,3.24-1.75,5.54-1.75,.92,0,1.85,.08,2.78,.23,.93,.16,1.88,.39,2.84,.7v5.11h-1.72l-.5-3.14-.48-.55c-.42-.24-.88-.41-1.37-.52s-1.03-.17-1.61-.17c-1.38,0-2.47,.36-3.27,1.07-.81,.71-1.21,1.68-1.21,2.91,0,.89,.28,1.63,.85,2.22,.56,.59,1.82,1.29,3.78,2.12,.18,.08,.46,.18,.82,.32,1.92,.75,3.31,1.55,4.16,2.38,.48,.47,.85,1.02,1.09,1.63,.24,.61,.36,1.28,.36,2,0,1.99-.78,3.59-2.34,4.81-1.56,1.22-3.63,1.83-6.21,1.83-1.15,0-2.23-.09-3.25-.27s-1.92-.45-2.7-.79Z"/>
    </g>
  </g>
</svg>