<?xml version="1.0" encoding="UTF-8"?>
<svg id="_лой_1" data-name="Слой 1" xmlns="http://www.w3.org/2000/svg" viewBox="0 0 281.21 35.44">
  <defs>
    <style>
      .cls-1 {
        fill: #5c5c5c;
      }
    </style>
  </defs>
  <path class="cls-1" d="M46.39,17.72c.5-1.15,.87-2.47,1.08-3.98,.35-2.57-.04-4.82-1.17-6.74-1.13-1.92-2.71-3.45-4.74-4.58-2.02-1.13-4.36-1.83-6.99-2.09-2.61-.26-5.24-.03-7.86,.71h-4.66C19.42,.3,16.7,.06,14.09,.32c-2.64,.26-4.96,.96-6.99,2.09-2.03,1.13-3.61,2.66-4.74,4.58-1.13,1.92-1.52,4.17-1.17,6.74,.22,1.52,.57,2.83,1.08,3.98-.51,1.14-.87,2.46-1.08,3.97-.35,2.58,.04,4.82,1.17,6.75,1.13,1.92,2.7,3.45,4.74,4.58,2.02,1.13,4.35,1.83,6.99,2.09,2.61,.26,5.24,.02,7.86-.71,.02,0,.03,0,.05,0v.04h4.71l-.05-.04s.03,0,.05,0c2.63,.73,5.26,.97,7.86,.71,2.63-.26,4.96-.96,6.99-2.09,2.03-1.13,3.61-2.66,4.74-4.58,1.13-1.93,1.52-4.17,1.17-6.75-.22-1.52-.58-2.83-1.08-3.97Zm-19.68-4.78c.56-.14,1.28-.29,2.18-.46,.21-.04,.41-.07,.62-.09,.78-.11,1.6-.17,2.48-.17,1.11,0,2.25,.13,3.41,.4,1.17,.26,2.25,.74,3.26,1.45,1.01,.71,1.88,1.7,2.65,2.97,.13,.22,.24,.44,.36,.68-.11,.24-.23,.46-.36,.68-.76,1.27-1.64,2.26-2.65,2.97-1.01,.71-2.09,1.19-3.26,1.45-1.16,.26-2.3,.4-3.41,.4-.88,0-1.7-.06-2.48-.17-.22-.02-.41-.06-.62-.09-.89-.16-1.62-.31-2.18-.45V12.95Zm-4.76,20.28c-1.98,.78-3.99,1.09-6.05,.93-2.08-.15-3.92-.73-5.53-1.74-1.6-1.01-2.84-2.39-3.73-4.15-.89-1.76-1.15-3.83-.79-6.24,1.12,.73,2.39,1.27,3.81,1.58,1.49,.34,3.09,.51,4.82,.51,1.48,0,2.73-.05,3.76-.13,1.02-.09,2.01-.19,2.96-.29,.24-.03,.5-.06,.75-.08v9.61Zm.05-10.74s-.03,0-.05,0c-.56,.14-1.28,.29-2.18,.45-.21,.04-.41,.08-.63,.09-.77,.11-1.59,.17-2.47,.17-1.11,0-2.25-.13-3.42-.4-1.16-.26-2.24-.74-3.25-1.45-1.01-.71-1.89-1.7-2.65-2.97-.13-.22-.25-.44-.36-.68,.1-.24,.23-.46,.36-.68,.75-1.27,1.64-2.26,2.65-2.97,1.01-.71,2.09-1.19,3.25-1.45,1.17-.27,2.31-.4,3.42-.4,.88,0,1.7,.06,2.47,.17,.22,.03,.42,.06,.63,.09,.89,.17,1.62,.32,2.18,.46,.02,0,.03,0,.05,0v9.53Zm.05-10.65h-.05s-.03,0-.05,0c-.25-.02-.51-.05-.75-.08-.95-.1-1.94-.21-2.96-.29-1.03-.08-2.28-.13-3.76-.13-1.73,0-3.33,.17-4.82,.5-1.41,.32-2.68,.86-3.81,1.59-.36-2.4-.09-4.47,.79-6.24,.89-1.77,2.13-3.16,3.73-4.15,1.61-1.01,3.45-1.59,5.53-1.75,2.05-.16,4.07,.16,6.05,.94,.02,0,.03,0,.05,.02,.02,0,.03,0,.05,.02V11.83Zm19.97,16.43c-.89,1.76-2.13,3.15-3.73,4.15-1.61,1.01-3.46,1.59-5.54,1.74-2.05,.16-4.06-.15-6.04-.93v-9.61c.25,.02,.51,.05,.75,.08,.95,.1,1.94,.2,2.96,.29,1.03,.08,2.28,.13,3.76,.13,1.73,0,3.33-.17,4.82-.51,1.41-.31,2.67-.85,3.81-1.58,.36,2.4,.08,4.47-.79,6.24Zm.79-14.84c-1.13-.73-2.39-1.27-3.81-1.59-1.49-.33-3.09-.5-4.82-.5-1.48,0-2.73,.05-3.76,.13-1.02,.08-2.01,.19-2.96,.29-.24,.03-.5,.06-.75,.08V2.22c1.98-.78,3.98-1.1,6.04-.94,2.08,.16,3.93,.74,5.54,1.75,1.6,1,2.84,2.38,3.73,4.15,.88,1.76,1.15,3.83,.79,6.24Z"/>
  <g>
    <path class="cls-1" d="M280.45,11.26c0,1.19-.93,2.12-2.12,2.12s-2.1-.93-2.1-2.11,.92-2.11,2.12-2.11,2.1,.91,2.1,2.1Zm-.28,0c0-1.04-.77-1.83-1.82-1.83s-1.84,.81-1.84,1.84,.78,1.84,1.82,1.84,1.84-.81,1.84-1.85Zm-1.26,.36l.54,.84h-.41l-.5-.77h-.65v.77h-.41v-2.39h.96c.6,0,.97,.32,.97,.81,0,.36-.19,.62-.5,.74Zm.11-.74c0-.31-.22-.47-.6-.47h-.53v.95h.53c.38,0,.6-.17,.6-.48Z"/>
    <g>
      <path class="cls-1" d="M63.57,9.5h6.26c1.9,0,3.31,.33,4.24,.98,.93,.66,1.39,1.66,1.39,3,0,.93-.3,1.71-.89,2.33-.6,.63-1.49,1.1-2.67,1.42,1.44,.02,2.56,.37,3.37,1.06s1.21,1.65,1.21,2.87c0,1.56-.55,2.75-1.65,3.58-1.1,.82-2.69,1.24-4.77,1.24h-6.48v-1.01l1.39-.12,.42-.35V10.97l-.42-.35-1.39-.14v-.98Zm4.03,7.46c.1,0,.22,.01,.35,.02,.13,0,.32,0,.57,0,1.55,0,2.69-.27,3.41-.82s1.09-1.41,1.09-2.59c0-1-.34-1.75-1.01-2.25-.67-.5-1.68-.75-3.02-.75-.12,0-.33,.01-.64,.03-.31,.02-.56,.03-.76,.04v6.31Zm.01,7.8c.3,.02,.58,.04,.85,.05,.27,.01,.54,.02,.79,.02,1.68,0,2.9-.28,3.67-.83,.76-.56,1.15-1.44,1.15-2.66,0-1.11-.33-1.94-1-2.48-.67-.54-1.69-.82-3.05-.82-.32,0-.68,.01-1.09,.04-.4,.03-.85,.07-1.33,.11v6.56Z"/>
      <path class="cls-1" d="M82.59,25.98v-1.01l1.39-.12,.42-.35V10.97l-.42-.35-1.39-.14v-.98h11.77v3.59h-1.38l-.35-2.09-.34-.37h-5.69v6.21h4.03l.35-.35,.24-1.79h1.16v5.41h-1.16l-.24-1.78-.35-.37h-4.03v6.89h6.59l.35-.4,.42-2.48h1.27v4.01h-12.65Z"/>
      <path class="cls-1" d="M107.09,9.29h1.62l5.89,15.38,1.48,.3v1.01h-5.58v-1.01l1.52-.12,.18-.35-1.78-4.69h-5.79l-1.75,4.69,.25,.35,1.6,.12v1.01h-4.81v-1.01l1.42-.3,5.76-15.38Zm.38,2.58l-2.42,6.81h4.96l-2.53-6.81Z"/>
      <path class="cls-1" d="M120.06,9.5h6.02v.98l-1.52,.14-.42,.35v8.89c0,1.72,.35,2.97,1.04,3.74s1.81,1.16,3.34,1.16,2.63-.39,3.32-1.17c.7-.78,1.04-2.02,1.04-3.73V11.14l-.47-.44-1.48-.22v-.98h5.2v.98l-1.48,.22-.44,.44v8.94c0,1.18-.08,2.08-.25,2.7-.17,.62-.44,1.17-.83,1.63-.49,.58-1.18,1.04-2.07,1.37-.89,.33-1.9,.5-3.02,.5s-2.13-.17-3.02-.5c-.89-.33-1.58-.79-2.06-1.37-.39-.47-.67-1.02-.83-1.63-.16-.62-.25-1.52-.25-2.7V10.97l-.42-.35-1.4-.14v-.98Z"/>
      <path class="cls-1" d="M141.07,9.5h13.88v3.78h-1.36l-.34-2.28-.35-.37h-3.75v13.88l.41,.35,1.66,.12v1.01h-6.42v-1.01l1.64-.12,.42-.35V10.63h-3.75l-.35,.37-.35,2.28h-1.34v-3.78Z"/>
      <path class="cls-1" d="M159.2,9.5h5.71v.98l-1.4,.14-.25,.28,3.77,6.75,4.13-6.56-.23-.35-1.5-.26v-.98h5.01v.98l-1.5,.31-5.11,8.18v5.53l.4,.35,1.67,.12v1.01h-6.36v-1.01l1.67-.12,.4-.35v-5.21l-4.89-8.58-1.5-.24v-.98Z"/>
      <path class="cls-1" d="M179.57,25.49v-4.32h1.45l.29,2.82,.32,.42c.36,.18,.77,.32,1.24,.42,.46,.1,.97,.14,1.51,.14,1.14,0,2.05-.27,2.72-.8,.67-.53,1-1.25,1-2.15,0-1.26-1.18-2.38-3.53-3.38-.26-.11-.45-.2-.59-.25-1.68-.73-2.79-1.41-3.33-2.03-.54-.63-.82-1.44-.82-2.44,0-1.41,.52-2.54,1.55-3.41,1.04-.87,2.41-1.3,4.12-1.3,.69,0,1.38,.06,2.07,.17,.69,.12,1.4,.29,2.12,.52v3.8h-1.28l-.37-2.34-.36-.41c-.31-.18-.65-.31-1.02-.39-.37-.08-.77-.13-1.2-.13-1.02,0-1.84,.27-2.44,.8s-.9,1.25-.9,2.17c0,.66,.21,1.21,.63,1.65,.42,.44,1.36,.96,2.81,1.58,.14,.06,.34,.14,.61,.24,1.43,.56,2.46,1.15,3.1,1.78,.36,.35,.63,.76,.81,1.21,.18,.46,.27,.95,.27,1.49,0,1.48-.58,2.67-1.74,3.58-1.16,.91-2.7,1.36-4.62,1.36-.86,0-1.66-.07-2.42-.2-.76-.14-1.43-.33-2.01-.59Z"/>
      <path class="cls-1" d="M196.69,25.98v-1.01l1.48-.19,.44-.47V10.97l-.31-.35-1.63-.14v-.98h5.22v.66l4.62,12.33,4.67-12.24v-.76h5.25v.98l-1.55,.14-.3,.35v13.53l.3,.35,1.55,.12v1.01h-5.87v-1.01l1.62-.12,.24-.35V10.65l-5.82,15.33h-1.06l-5.6-15.08v13.41l.44,.47,1.5,.19v1.01h-5.19Z"/>
      <path class="cls-1" d="M228.38,9.29h1.62l5.89,15.38,1.48,.3v1.01h-5.58v-1.01l1.52-.12,.18-.35-1.78-4.69h-5.79l-1.75,4.69,.25,.35,1.6,.12v1.01h-4.81v-1.01l1.42-.3,5.76-15.38Zm.38,2.58l-2.42,6.81h4.96l-2.53-6.81Z"/>
      <path class="cls-1" d="M242.75,25.49v-4.32h1.45l.29,2.82,.32,.42c.36,.18,.77,.32,1.24,.42,.46,.1,.97,.14,1.51,.14,1.14,0,2.05-.27,2.72-.8,.67-.53,1-1.25,1-2.15,0-1.26-1.18-2.38-3.53-3.38-.26-.11-.45-.2-.59-.25-1.68-.73-2.79-1.41-3.33-2.03-.54-.63-.82-1.44-.82-2.44,0-1.41,.52-2.54,1.55-3.41,1.04-.87,2.41-1.3,4.12-1.3,.69,0,1.38,.06,2.07,.17,.69,.12,1.4,.29,2.12,.52v3.8h-1.28l-.37-2.34-.36-.41c-.31-.18-.65-.31-1.02-.39-.37-.08-.77-.13-1.2-.13-1.02,0-1.84,.27-2.44,.8s-.9,1.25-.9,2.17c0,.66,.21,1.21,.63,1.65,.42,.44,1.36,.96,2.81,1.58,.14,.06,.34,.14,.61,.24,1.43,.56,2.46,1.15,3.1,1.78,.36,.35,.63,.76,.81,1.21,.18,.46,.27,.95,.27,1.49,0,1.48-.58,2.67-1.74,3.58-1.16,.91-2.7,1.36-4.62,1.36-.86,0-1.66-.07-2.42-.2-.76-.14-1.43-.33-2.01-.59Z"/>
      <path class="cls-1" d="M260.59,25.49v-4.32h1.45l.29,2.82,.32,.42c.36,.18,.77,.32,1.24,.42,.46,.1,.97,.14,1.51,.14,1.14,0,2.05-.27,2.72-.8,.67-.53,1-1.25,1-2.15,0-1.26-1.18-2.38-3.53-3.38-.26-.11-.45-.2-.59-.25-1.68-.73-2.79-1.41-3.33-2.03-.54-.63-.82-1.44-.82-2.44,0-1.41,.52-2.54,1.55-3.41,1.04-.87,2.41-1.3,4.12-1.3,.69,0,1.38,.06,2.07,.17,.69,.12,1.4,.29,2.12,.52v3.8h-1.28l-.37-2.34-.36-.41c-.31-.18-.65-.31-1.02-.39-.37-.08-.77-.13-1.2-.13-1.02,0-1.84,.27-2.44,.8s-.9,1.25-.9,2.17c0,.66,.21,1.21,.63,1.65,.42,.44,1.36,.96,2.81,1.58,.14,.06,.34,.14,.61,.24,1.43,.56,2.46,1.15,3.1,1.78,.36,.35,.63,.76,.81,1.21,.18,.46,.27,.95,.27,1.49,0,1.48-.58,2.67-1.74,3.58-1.16,.91-2.7,1.36-4.62,1.36-.86,0-1.66-.07-2.42-.2-.76-.14-1.43-.33-2.01-.59Z"/>
    </g>
  </g>
</svg>